<?xml version="1.0" encoding="UTF-8"?>
<!-- Generator: Adobe Illustrator 27.7.0, SVG Export Plug-In . SVG Version: 6.00 Build 0)  -->
<svg xmlns="http://www.w3.org/2000/svg" xmlns:xlink="http://www.w3.org/1999/xlink" version="1.1" id="Layer_1" x="0px" y="0px" viewBox="0 0 1024 230.4" style="enable-background:new 0 0 1024 230.4;" xml:space="preserve">
<style type="text/css">
	.st0{fill:#63AD6D;}
</style>
<g>
	<g>
		<path d="M655.1,64.3h10.3v88.5h-10.3V64.3z"></path>
		<path d="M679.9,87.8h9.2v6.8h0.1c2.7-5.4,8-8.1,13.7-8.1c6.8,0,11.9,4.6,11.9,11.9v54.4h-9.5v-50.4c0-4.9-2.2-7.8-6.8-7.8    c-5.3,0-9,6.1-9,12v46.2h-9.5V87.8z"></path>
		<path d="M731.7,95.7h-6.5V88h6.5V75.7c0-7.6,4.9-12.6,12.7-12.6c2.1,0,4.3,0.2,6.3,0.8v7.3c-1.5-0.2-2.9-0.4-4.5-0.3    c-2.9,0-5.2,1.9-5.2,5.6V88h8.2v7.7H741v57.2h-9.4V95.7H731.7z M757.2,143.4V64.4h9.5v76.4c0,2.2,1.1,3.9,4.1,3.9    c1.1,0,2.1-0.1,3.3-0.3v8.1c-2.1,0.8-4.3,1.1-6.5,1.1C760.4,153.7,757.2,149.5,757.2,143.4z"></path>
		<path d="M783.7,142.1V87.9h9.5v50.5c0,4.8,2.2,7.6,6.8,7.6c5.3,0,9-6.1,9-11.9V88h9.5v65h-9.2v-7.1h-0.1    c-2.6,5.2-7.8,8.4-13.7,8.4C788.7,154.2,783.7,149.5,783.7,142.1z"></path>
		<path d="M831.3,135.6v-30.3c0-12,7.5-18.8,17.9-18.8c10.6,0,16.3,7.1,16.3,17.5v19.2h-24.4v11.1c0,7.7,2.8,11.7,10.4,11.7    c4.4,0,8.4-1.5,11.2-2.6l2.2,6.9c-4.6,2.6-9.8,3.8-15,3.8C838.6,154.1,831.3,148.2,831.3,135.6z M856.8,115.9v-12.3    c0-4.5-1.9-9.1-7.8-9.1c-5.7,0-7.8,4.7-7.8,9.3v12.1H856.8z"></path>
		<path d="M877.8,87.8h9.2v6.8h0.1c2.7-5.4,8-8.1,13.7-8.1c6.8,0,11.9,4.6,11.9,11.9v54.4h-9.6v-50.4c0-4.9-2.2-7.8-6.8-7.8    c-5.3,0-9,6.1-9,12v46.2h-9.5V87.8H877.8z"></path>
		<path d="M924.9,136.3v-31.8c0-11.7,7.8-17.9,17.6-17.9c10.8,0,16.4,6.6,16.4,14.8v6.6h-8.6V102c0-3.6-1.9-7.4-7.7-7.4    c-5.9,0-8.1,4.4-8.1,9.2v33c0,5.2,2,9.4,8.1,9.4c6.6,0,7.7-4.7,7.7-8v-5.6h8.6v6.3c0,9.2-6.1,15.2-16.6,15.2    C931.6,154.1,924.9,147.8,924.9,136.3z"></path>
		<path d="M969.3,135.6v-30.3c0-12,7.4-18.8,17.9-18.8c10.6,0,16.3,7.1,16.3,17.5v19.2h-24.4v11.1c0,7.7,2.9,11.7,10.4,11.7    c4.4,0,8.4-1.5,11.2-2.6l2.2,6.9c-4.6,2.6-9.8,3.9-15,3.8C976.5,154.1,969.3,148.2,969.3,135.6z M994.5,115.9v-12.3    c0-4.5-1.9-9.1-7.8-9.1c-5.7,0-7.8,4.7-7.8,9.3v12.1H994.5z"></path>
	</g>
	<g>
		<g>
			<path class="st0" d="M143.7,230.4c-31.2,0-56.5-20.8-56.5-46.4s25.3-46.4,56.5-46.4s56.5,20.7,56.5,46.4     C200.2,209.6,174.9,230.4,143.7,230.4z M143.7,153.9c-22.3,0-40.4,13.6-40.4,30.2s18,30.2,40.4,30.2S184,200.6,184,184     S165.9,153.9,143.7,153.9L143.7,153.9z"></path>
			<path class="st0" d="M143.7,230.4c-55.3,0-100.2-36.2-100.2-80.8s44.9-80.8,100.2-80.8s100.2,36.2,100.2,80.8     S198.8,230.4,143.7,230.4z M143.7,85.1c-46.3,0-84,28.9-84,64.6s37.7,64.6,84,64.6s84-28.9,84-64.6S190,85.1,143.7,85.1     L143.7,85.1z"></path>
			<path class="st0" d="M143.7,230.4C64.4,230.4,0,178.8,0,115.2S64.4,0,143.7,0s143.7,51.7,143.7,115.2S222.8,230.4,143.7,230.4z      M143.7,16.3c-70.3,0-127.6,44.4-127.6,99s57.2,99,127.6,99s127.6-44.4,127.6-99S214,16.3,143.7,16.3L143.7,16.3z"></path>
		</g>
		<g>
			<path d="M362.1,134.3v-51c0-12.3,8.5-20.3,21.6-20.3c12.4,0,20.2,7.6,20.2,18v10.1h-9.2v-8.5c0-6.4-3.7-10.6-11.1-10.6     c-8.1,0-11.2,5.3-11.2,11.9v49.5c0,8,4.4,11.9,11.4,11.9c7.1,0,10.8-4.7,10.8-10.5V126h9.2v9.2c0,11.4-8,19.1-20.2,19.1     C370.8,154.1,362.1,147.1,362.1,134.3z"></path>
			<path d="M416.3,87.9h9.5v7.3h0.1c2.5-5.6,6.7-7.8,11.3-7.8c1.1,0,2.2,0,3.4,0.2v9.3c-1.6-0.1-3.5-0.3-4.5-0.3     c-5.7,0-10.1,3.3-10.2,10.1v46.3h-9.5L416.3,87.9z"></path>
			<path d="M449.3,142.1V87.9h9.5v50.5c0,4.8,2.2,7.6,6.8,7.6c5.2,0,9-6.1,9-11.9V88h9.5v65H475v-7.1h-0.1     c-2.6,5.2-7.8,8.4-13.7,8.4C454.5,154.2,449.3,149.5,449.3,142.1z"></path>
			<path d="M497.1,136.2v-31.8c0-11.7,7.8-17.8,17.6-17.8c10.8,0,16.4,6.6,16.4,14.8v6.6h-8.5V102c0-3.6-1.9-7.4-7.7-7.4     c-5.8,0-8.1,4.4-8.1,9.2v32.8c0,5,2,9.5,8.1,9.5c6.6,0,7.7-4.7,7.7-8v-5.6h8.5v6.4c0,9.2-6.1,15.2-16.6,15.2     C503.9,154.1,497.1,147.7,497.1,136.2z"></path>
			<path d="M543,63.1h9.6v13.8H543V63.1z M543,87.9h9.6v65H543V87.9z"></path>
			<path d="M564.2,134.5c0-12.9,8.4-20.7,19.5-21h5.2V101c0-4.1-2.5-6.7-7.2-6.7c-4.7,0-7.3,2.4-7.3,6.6v6.5h-8.7v-6.7     c0-8.4,6.6-14.2,17-14.2c9.8,0,15.9,5.6,15.9,14.3v36.1c0,4.7,0.3,13,0.4,15.8h-8.7c0-1-0.3-4.3-0.3-7.1h-0.3     c-1.9,4.9-6.6,8.2-11.9,8.2C570.4,154,564.2,148.1,564.2,134.5z M588.9,135.7v-15.8H584c-4.9,0-10.1,3.4-10.1,13.6     c0,9.2,2.7,12.9,6.7,12.9C585.2,146.3,588.9,141.3,588.9,135.7L588.9,135.7z"></path>
			<path d="M612,143.4V64.4h9.5v76.4c0,2.2,1.2,3.9,4.1,3.9c1.1,0,2.1-0.1,3.3-0.3v8.1c-2.1,0.8-4.3,1.1-6.5,1.1     C615.1,153.6,612,149.5,612,143.4z"></path>
		</g>
	</g>
	<path d="M1013,146.2c0-3.9,2.1-6.8,5.5-6.8c3.4,0,5.5,2.9,5.5,6.8c0,3.7-2,6.8-5.5,6.8C1015,153,1013,150,1013,146.2z    M1022.8,146.2c0-3.6-2-5.8-4.3-5.8c-2.2,0-4.3,2.1-4.3,5.8c0,3.7,1.9,5.8,4.3,5.8C1020.7,152,1022.8,149.7,1022.8,146.2z    M1016.4,141.8h2.2c1.2,0,2.2,0.9,2.2,2.1c0,0.1,0,0.2,0,0.4c0.1,1-0.4,1.9-1.2,2.4l1.5,3.7h-1.5l-1.2-3.5h-0.7v3.5h-1.3   L1016.4,141.8z M1018.5,145.8c0.8,0,1-0.6,1-1.5c0-0.9-0.3-1.5-1.1-1.5h-0.8v2.9L1018.5,145.8z"></path>
</g>
</svg>
