<svg id="Layer_1" data-name="Layer 1" xmlns="http://www.w3.org/2000/svg" viewBox="0 0 212.55 42.67"><defs><style>.cls-1{fill:#e65300;}</style></defs><path class="cls-1" d="M51.72,9.92h-11V1.51A1.5,1.5,0,0,0,39.17,0H14.06a1.5,1.5,0,0,0-1.5,1.5V19.84H1.5A1.5,1.5,0,0,0,0,21.33V41.16a1.5,1.5,0,0,0,1.5,1.5H26.61a1.5,1.5,0,0,0,1.5-1.5V32.75H51.72a1.5,1.5,0,0,0,1.5-1.5V11.42A1.5,1.5,0,0,0,51.72,9.92ZM15.56,3H37.67V9.92H26.61a1.5,1.5,0,0,0-1.5,1.5v8.42H15.56Zm22.11,9.91v6.92H28.11V12.92ZM25.11,39.66H3V22.83H25.11V39.66Zm25.11-9.91H28.11V22.83H39.17a1.5,1.5,0,0,0,1.5-1.5V12.92h9.55Z"/><path d="M67.36,24.84v-9.4a3.68,3.68,0,0,1,4-3.79c2.28,0,3.77,1.4,3.77,3.33V16.8H73.41V15.21a1.86,1.86,0,0,0-2-2,2,2,0,0,0-2.09,2.27v9.18a2,2,0,0,0,2.09,2.18,1.8,1.8,0,0,0,2-2V21.21H71.23V19.69h4V25c0,2.09-1.43,3.52-3.79,3.52S67.36,27.21,67.36,24.84Z"/><path d="M77.3,25.12V19.53A3.17,3.17,0,0,1,80.61,16c2,0,3,1.31,3,3.24v3.54H79.09v2.05c0,1.42.53,2.16,1.93,2.16a5.69,5.69,0,0,0,2.07-.48l.42,1.28a5.61,5.61,0,0,1-2.79.72A3.09,3.09,0,0,1,77.3,25.12ZM82,21.46V19.19c0-.83-.35-1.68-1.45-1.68s-1.45.87-1.45,1.72v2.23Z"/><path d="M86.45,26.59v-8.8H85.26V16.31h1.19V13.58H88.2v2.73h1.91v1.48H88.2v8.3c0,.59.23.82.73.82a3.21,3.21,0,0,0,1-.16V28.2a4.62,4.62,0,0,1-1.47.28A1.78,1.78,0,0,1,86.45,26.59Z"/><path d="M92.43,26.59v-8.8h-1.2V16.31h1.2V13.58h1.75v2.73h1.91v1.48H94.18v8.3c0,.59.23.82.73.82a3.21,3.21,0,0,0,1-.16V28.2a4.62,4.62,0,0,1-1.47.28A1.78,1.78,0,0,1,92.43,26.59Z"/><path d="M97.93,11.69H99.7v2.55H97.93Zm0,4.58H99.7V28.32H97.93Z"/><path d="M102.37,16.27h1.7v1.26h0A2.75,2.75,0,0,1,106.62,16a2.1,2.1,0,0,1,2.21,2.2V28.32h-1.77V19c0-.92-.42-1.45-1.27-1.45s-1.65,1.13-1.65,2.23v8.56h-1.77Z"/><path d="M111.2,31.67l.53-1.42a5.37,5.37,0,0,0,2.18.48c1.27,0,1.91-.67,1.91-2V26.55h0a2.49,2.49,0,0,1-2.2,1.49,2.42,2.42,0,0,1-2.49-2.69V18.87A2.61,2.61,0,0,1,113.75,16a2.3,2.3,0,0,1,2.16,1.33h0V16.24h1.63V28.62A3.29,3.29,0,0,1,114,32.23,6.29,6.29,0,0,1,111.2,31.67Zm4.62-7.24V19.56a2,2,0,0,0-1.68-2.12c-.78,0-1.29.6-1.29,1.63v6c0,.78.33,1.54,1.34,1.54A2,2,0,0,0,115.82,24.43Z"/><path d="M125.85,13.53h-3.13V11.92h8.14v1.61h-3.13V28.32h-1.88Z"/><path d="M132.7,11.92h1.77v5.59h0A2.61,2.61,0,0,1,137,16a2.09,2.09,0,0,1,2.2,2.2V28.32h-1.77V19c0-.92-.41-1.45-1.26-1.45s-1.66,1.15-1.66,2.26v8.53H132.7Z"/><path d="M141.72,11.69h1.77v2.55h-1.77Zm0,4.58h1.77V28.32h-1.77Z"/><path d="M146.16,16.27h1.7v1.26h0A2.75,2.75,0,0,1,150.41,16a2.1,2.1,0,0,1,2.21,2.2V28.32h-1.77V19c0-.92-.42-1.45-1.27-1.45s-1.65,1.13-1.65,2.23v8.56h-1.77Z"/><path d="M155,31.67l.53-1.42a5.37,5.37,0,0,0,2.18.48c1.27,0,1.91-.67,1.91-2V26.55h-.05a2.49,2.49,0,0,1-2.2,1.49,2.42,2.42,0,0,1-2.49-2.69V18.87A2.61,2.61,0,0,1,157.54,16a2.3,2.3,0,0,1,2.16,1.33h.05V16.24h1.63V28.62a3.29,3.29,0,0,1-3.63,3.61A6.29,6.29,0,0,1,155,31.67Zm4.62-7.24V19.56a2,2,0,0,0-1.68-2.12c-.78,0-1.29.6-1.29,1.63v6c0,.78.33,1.54,1.34,1.54A2,2,0,0,0,159.61,24.43Z"/><path d="M163.45,25.4l1.7,0c.12,1.08.49,1.73,1.43,1.73.76,0,1.24-.46,1.24-1.38a4.17,4.17,0,0,0-1.43-2.51l-1-1.17a4.69,4.69,0,0,1-1.59-3.2,2.7,2.7,0,0,1,2.94-2.8c1.59,0,2.74.94,2.83,3.06l-1.58.06c-.12-1.24-.49-1.74-1.31-1.74a1.15,1.15,0,0,0-1.22,1.24,3.14,3.14,0,0,0,1.08,2l1.31,1.45a5.31,5.31,0,0,1,1.72,3.49,2.78,2.78,0,0,1-3,2.92A3,3,0,0,1,163.45,25.4Z"/><path d="M174.84,11.92h3.88c2.16,0,3.82,1.1,3.82,3.45v9.22c0,2.53-1.66,3.73-3.86,3.73h-3.84Zm3.7,14.74a1.94,1.94,0,0,0,2.07-2.09v-9a1.88,1.88,0,0,0-2.07-2h-1.82V26.66Z"/><path d="M184.68,25.19V19.35A3.13,3.13,0,0,1,188,16a3,3,0,0,1,3.29,3.22v5.91A3.11,3.11,0,0,1,188,28.55,3,3,0,0,1,184.68,25.19Zm4.83.09V19.23A1.52,1.52,0,0,0,188,17.51c-1.08,0-1.5.83-1.5,1.75v6c0,.92.44,1.77,1.54,1.77S189.51,26.18,189.51,25.28Z"/><path d="M193.67,16.27h1.7v1.26h0A2.74,2.74,0,0,1,197.93,16a2.09,2.09,0,0,1,2.2,2.2V28.32h-1.77V19c0-.92-.41-1.45-1.26-1.45s-1.66,1.13-1.66,2.23v8.56h-1.77Z"/><path d="M202.39,25.12V19.53A3.17,3.17,0,0,1,205.7,16c2,0,3,1.31,3,3.24v3.54h-4.53v2.05c0,1.42.53,2.16,1.93,2.16a5.69,5.69,0,0,0,2.07-.48l.42,1.28a5.61,5.61,0,0,1-2.79.72A3.09,3.09,0,0,1,202.39,25.12Zm4.69-3.66V19.19c0-.83-.35-1.68-1.45-1.68s-1.45.87-1.45,1.72v2.23Z"/><path d="M210.52,27.1c0-.72.39-1.27,1-1.27s1,.54,1,1.27-.38,1.27-1,1.27S210.52,27.79,210.52,27.1Zm1.8,0c0-.67-.37-1.08-.8-1.08s-.78.4-.78,1.08.36,1.07.78,1.07S212.32,27.77,212.32,27.1Zm-1.18-.81h.41a.41.41,0,0,1,.42.46.44.44,0,0,1-.23.43l.26.7h-.26l-.23-.65h-.13v.65h-.24Zm.38.75c.14,0,.2-.1.2-.27s-.06-.27-.2-.27h-.14V27Z"/></svg>